<svg id="visual" viewBox="0 0 900 600" width="900" height="600" xmlns="http://www.w3.org/2000/svg" xmlns:xlink="http://www.w3.org/1999/xlink" version="1.1"><rect x="0" y="0" width="900" height="600" fill="#efe6dd"></rect><defs><linearGradient id="grad1_0" x1="33.3%" y1="100%" x2="100%" y2="0%"><stop offset="20%" stop-color="#efe6dd" stop-opacity="1"></stop><stop offset="80%" stop-color="#efe6dd" stop-opacity="1"></stop></linearGradient></defs><defs><linearGradient id="grad2_0" x1="0%" y1="100%" x2="66.7%" y2="0%"><stop offset="20%" stop-color="#efe6dd" stop-opacity="1"></stop><stop offset="80%" stop-color="#efe6dd" stop-opacity="1"></stop></linearGradient></defs><g transform="translate(900, 600)"><path d="M-378.6 0C-378.2 -82.7 -377.8 -165.4 -327.9 -189.3C-277.9 -213.2 -178.4 -178.3 -115.5 -200.1C-52.6 -221.8 -26.3 -300.2 0 -378.6L0 0Z" fill="#bc6951"></path></g><g transform="translate(0, 0)"><path d="M378.6 0C374 75.4 369.4 150.8 327.9 189.3C286.3 227.7 207.8 229.2 147 254.6C86.2 280 43.1 329.3 0 378.6L0 0Z" fill="#bc6951"></path></g></svg>