<svg id="visual" viewBox="0 0 900 600" width="900" height="600" xmlns="http://www.w3.org/2000/svg" xmlns:xlink="http://www.w3.org/1999/xlink" version="1.1"><rect x="0" y="0" width="900" height="600" fill="#efe6dd"></rect><path d="M0 100L21.5 103.2C43 106.3 86 112.7 128.8 131.7C171.7 150.7 214.3 182.3 257.2 199.7C300 217 343 220 385.8 215.2C428.7 210.3 471.3 197.7 514.2 183C557 168.3 600 151.7 642.8 155.3C685.7 159 728.3 183 771.2 191.8C814 200.7 857 194.3 878.5 191.2L900 188L900 0L878.5 0C857 0 814 0 771.2 0C728.3 0 685.7 0 642.8 0C600 0 557 0 514.2 0C471.3 0 428.7 0 385.8 0C343 0 300 0 257.2 0C214.3 0 171.7 0 128.8 0C86 0 43 0 21.5 0L0 0Z" fill="#bc6951" stroke-linecap="round" stroke-linejoin="miter"></path></svg>
